<svg version="1.0" id="Layer_1" xmlns="http://www.w3.org/2000/svg" xmlns:xlink="http://www.w3.org/1999/xlink" viewBox="0 0 64 64" enable-background="new 0 0 64 64" xml:space="preserve" fill="#ffffff" stroke="#ffffff"><g id="SVGRepo_bgCarrier" stroke-width="0"></g><g id="SVGRepo_tracerCarrier" stroke-linecap="round" stroke-linejoin="round"></g><g id="SVGRepo_iconCarrier"> <g> <rect x="8" y="8" fill="#4caf50" width="48" height="8"></rect> <rect x="12" y="24" fill="#bb86fc" width="40" height="32"></rect> <path fill="#394240" d="M60,0H4C1.789,0,0,1.789,0,4v16c0,2.211,1.789,4,4,4v36c0,2.211,1.789,4,4,4h48c2.211,0,4-1.789,4-4V24 c2.211,0,4-1.789,4-4V4C64,1.789,62.211,0,60,0z M8,8h48v8H8V8z M52,56H12V24h40V56z"></path> <path fill="#394240" d="M24,40h16c2.211,0,4-1.789,4-4s-1.789-4-4-4H24c-2.211,0-4,1.789-4,4S21.789,40,24,40z"></path> </g> </g></svg>